<mxfile host="Electron" modified="2024-04-07T14:25:49.254Z" agent="Mozilla/5.0 (Windows NT 10.0; Win64; x64) AppleWebKit/537.36 (KHTML, like Gecko) draw.io/24.1.0 Chrome/120.0.6099.109 Electron/28.1.0 Safari/537.36" etag="3q_qpJQxxbvwr9WOprvH" version="24.1.0" type="device">
  <diagram id="8_Qu16BbCxO-XyO2lTJj" name="Page-1">
    <mxGraphModel dx="1366" dy="1973" grid="1" gridSize="10" guides="1" tooltips="1" connect="1" arrows="1" fold="1" page="1" pageScale="1" pageWidth="827" pageHeight="1169" math="0" shadow="0">
      <root>
        <mxCell id="0" />
        <mxCell id="1" parent="0" />
        <mxCell id="lwGD9mk699JmOTdeLKET-12" style="edgeStyle=none;rounded=0;orthogonalLoop=1;jettySize=auto;html=1;" parent="1" source="Eb_Z2xhD77kWlVFTaPqJ-1" target="Eb_Z2xhD77kWlVFTaPqJ-14" edge="1">
          <mxGeometry relative="1" as="geometry" />
        </mxCell>
        <mxCell id="6_cV1c1mmNn6FJcVCxE8-7" style="edgeStyle=orthogonalEdgeStyle;rounded=0;orthogonalLoop=1;jettySize=auto;html=1;exitX=0.5;exitY=1;exitDx=0;exitDy=0;" parent="1" source="Eb_Z2xhD77kWlVFTaPqJ-1" target="6_cV1c1mmNn6FJcVCxE8-5" edge="1">
          <mxGeometry relative="1" as="geometry" />
        </mxCell>
        <mxCell id="Eb_Z2xhD77kWlVFTaPqJ-1" value="Basic config" style="swimlane;fillColor=#d5e8d4;fillStyle=solid;startSize=30;strokeColor=#82b366;" parent="1" vertex="1">
          <mxGeometry x="40" y="40" width="200" height="110" as="geometry">
            <mxRectangle x="220" y="210" width="100" height="30" as="alternateBounds" />
          </mxGeometry>
        </mxCell>
        <mxCell id="Eb_Z2xhD77kWlVFTaPqJ-4" value="&lt;font face=&quot;Courier New&quot;&gt;enable&lt;br&gt;configure terminal (conf t)&lt;br&gt;no ip domain-lookup&lt;br&gt;hostname &amp;lt;name&amp;gt;&lt;/font&gt;" style="rounded=0;whiteSpace=wrap;html=1;fillStyle=solid;fillColor=#FFFFFF;align=left;" parent="Eb_Z2xhD77kWlVFTaPqJ-1" vertex="1">
          <mxGeometry y="30" width="200" height="80" as="geometry" />
        </mxCell>
        <mxCell id="Eb_Z2xhD77kWlVFTaPqJ-6" value="VLAN" style="swimlane;fillColor=#fff2cc;fillStyle=solid;startSize=30;strokeColor=#d6b656;" parent="1" vertex="1">
          <mxGeometry x="520" y="-200" width="320" height="310" as="geometry">
            <mxRectangle x="220" y="210" width="100" height="30" as="alternateBounds" />
          </mxGeometry>
        </mxCell>
        <mxCell id="Eb_Z2xhD77kWlVFTaPqJ-7" value="&lt;font face=&quot;Courier New&quot;&gt;!# založím vlan&lt;br&gt;vlan &amp;lt;vlan-id&amp;gt;&lt;br&gt;&lt;font face=&quot;Courier New&quot;&gt;&amp;nbsp; name &amp;lt;vlan-name&amp;gt;&lt;br&gt;&lt;br&gt;!# access mode -&amp;gt; na koncové porty (PC)&lt;br&gt;interface ...&lt;br&gt;&amp;nbsp; switchport mode access&lt;br&gt;&amp;nbsp; switchport access vlan &amp;lt;vlan-id&amp;gt;&lt;br&gt;&lt;br&gt;!# trunking mode -&amp;gt; mezi SW nebo Routerama&lt;br&gt;interface ...&lt;br&gt;&amp;nbsp; switchport mode trunk&lt;br&gt;&amp;nbsp; switchport trunk native vlan &amp;lt;vlan-id&amp;gt;&lt;br&gt;&lt;br&gt;!# VMI(Virtual Management Interface)&lt;br&gt;int vlan &amp;lt;vlan-id&amp;gt;&lt;br&gt;&amp;nbsp; ip add &amp;lt;ip-address&amp;gt; &amp;lt;subnet-mask&amp;gt;&lt;br&gt;&lt;/font&gt;&lt;/font&gt;" style="rounded=0;whiteSpace=wrap;html=1;fillStyle=solid;fillColor=#FFFFFF;align=left;" parent="Eb_Z2xhD77kWlVFTaPqJ-6" vertex="1">
          <mxGeometry y="30" width="320" height="280" as="geometry" />
        </mxCell>
        <mxCell id="Eb_Z2xhD77kWlVFTaPqJ-8" value="Inter-VLAN Routing" style="swimlane;fillColor=#dae8fc;fillStyle=solid;startSize=30;strokeColor=#6c8ebf;" parent="1" vertex="1">
          <mxGeometry x="910" y="-50" width="320" height="180" as="geometry">
            <mxRectangle x="220" y="210" width="100" height="30" as="alternateBounds" />
          </mxGeometry>
        </mxCell>
        <mxCell id="Eb_Z2xhD77kWlVFTaPqJ-9" value="&lt;font face=&quot;Courier New&quot;&gt;&lt;font face=&quot;Courier New&quot;&gt;!# Na routeru - propojím jednotlivé VLAN&lt;br&gt;!# tzv. Router on Stick&lt;br&gt;!# Toto provedu pro každou VLAN&lt;br&gt;&lt;br&gt;int g0/1.&amp;lt;vlan-id&amp;gt;&lt;br&gt;&amp;nbsp; encapsulation dot1Q &amp;lt;vlan-id&amp;gt; (?native)&lt;br&gt;&amp;nbsp; ip add &amp;lt;ip-address&amp;gt; &amp;lt;subnet-mask&amp;gt;&lt;br&gt;&lt;/font&gt;&lt;/font&gt;" style="rounded=0;whiteSpace=wrap;html=1;fillStyle=solid;fillColor=#FFFFFF;align=left;" parent="Eb_Z2xhD77kWlVFTaPqJ-8" vertex="1">
          <mxGeometry y="30" width="320" height="150" as="geometry" />
        </mxCell>
        <mxCell id="Eb_Z2xhD77kWlVFTaPqJ-11" value="Spanning Tree Protocol (STP)" style="swimlane;fillColor=#fff2cc;fillStyle=solid;startSize=30;strokeColor=#d6b656;" parent="1" vertex="1">
          <mxGeometry x="880" y="-200" width="360" height="140" as="geometry">
            <mxRectangle x="220" y="210" width="100" height="30" as="alternateBounds" />
          </mxGeometry>
        </mxCell>
        <mxCell id="Eb_Z2xhD77kWlVFTaPqJ-12" value="&lt;font face=&quot;Courier New&quot;&gt;&lt;font face=&quot;Courier New&quot;&gt;!# Na Switchi&lt;br&gt;!# eliminuji přebytečné cesty (loop)&lt;br&gt;&lt;/font&gt;&lt;/font&gt;&lt;span style=&quot;font-family: &amp;quot;Courier New&amp;quot;;&quot;&gt;!# priority = 0 -&amp;gt; root bridge&lt;br&gt;&lt;/span&gt;&lt;font face=&quot;Courier New&quot;&gt;&lt;font face=&quot;Courier New&quot;&gt;&lt;br&gt;spanning-tree vlan &amp;lt;vlan-id&amp;gt; port-priority &amp;lt;num&amp;gt;&lt;br&gt;&lt;br&gt;&lt;/font&gt;&lt;/font&gt;" style="rounded=0;whiteSpace=wrap;html=1;fillStyle=solid;fillColor=#FFFFFF;align=left;" parent="Eb_Z2xhD77kWlVFTaPqJ-11" vertex="1">
          <mxGeometry y="30" width="360" height="110" as="geometry" />
        </mxCell>
        <mxCell id="Eb_Z2xhD77kWlVFTaPqJ-13" value="Ether-Channel" style="swimlane;fillColor=#fff2cc;fillStyle=solid;startSize=30;strokeColor=#d6b656;" parent="1" vertex="1">
          <mxGeometry x="40" y="-200" width="440" height="180" as="geometry">
            <mxRectangle x="220" y="210" width="100" height="30" as="alternateBounds" />
          </mxGeometry>
        </mxCell>
        <mxCell id="Eb_Z2xhD77kWlVFTaPqJ-14" value="&lt;font face=&quot;Courier New&quot;&gt;&lt;font face=&quot;Courier New&quot;&gt;!# Sjednotím více portů, výsledkem je jeden virtuální port&lt;br&gt;!# =&amp;gt; přenesu větší objem dat, redundance&lt;br&gt;&lt;br&gt;interface range ...&lt;br&gt;&amp;nbsp; channel-group &amp;lt;channel-group-id&amp;gt; mode &amp;lt;mode&amp;gt;&lt;br&gt;&lt;br&gt;int port-channel &amp;lt;channel-group-id&amp;gt;&lt;br&gt;&amp;nbsp; !# dále nastavuji jako klasický interface ...&lt;br&gt;&lt;/font&gt;&lt;/font&gt;" style="rounded=0;whiteSpace=wrap;html=1;fillStyle=solid;fillColor=#FFFFFF;align=left;" parent="Eb_Z2xhD77kWlVFTaPqJ-13" vertex="1">
          <mxGeometry y="30" width="440" height="150" as="geometry" />
        </mxCell>
        <mxCell id="Eb_Z2xhD77kWlVFTaPqJ-15" style="rounded=0;orthogonalLoop=1;jettySize=auto;html=1;fontFamily=Courier New;" parent="1" source="Eb_Z2xhD77kWlVFTaPqJ-7" target="Eb_Z2xhD77kWlVFTaPqJ-9" edge="1">
          <mxGeometry relative="1" as="geometry" />
        </mxCell>
        <mxCell id="Eb_Z2xhD77kWlVFTaPqJ-16" value="Port Security" style="swimlane;fillColor=#fff2cc;fillStyle=solid;startSize=30;strokeColor=#d6b656;" parent="1" vertex="1">
          <mxGeometry x="490" y="140" width="430" height="240" as="geometry">
            <mxRectangle x="220" y="210" width="100" height="30" as="alternateBounds" />
          </mxGeometry>
        </mxCell>
        <mxCell id="Eb_Z2xhD77kWlVFTaPqJ-17" value="&lt;font face=&quot;Courier New&quot;&gt;&lt;font face=&quot;Courier New&quot;&gt;!# maximum MAC adres připojených na access port (default 1)&lt;br&gt;!# tyto adresy se defaultně učí sám - mohu předdefinovat&amp;nbsp;&lt;/font&gt;&lt;/font&gt;&lt;span style=&quot;font-family: &amp;quot;Courier New&amp;quot;;&quot;&gt;&lt;br&gt;&lt;/span&gt;&lt;font face=&quot;Courier New&quot;&gt;&lt;font face=&quot;Courier New&quot;&gt;!# violation mode - co se stane při porušení&lt;br&gt;!#&amp;nbsp; &amp;nbsp;shutdown - interface se vypne&lt;br&gt;!#&amp;nbsp; &amp;nbsp;restrict - nepropustí komunikaci, zaloguje&lt;br&gt;!#&amp;nbsp; &amp;nbsp;protect - nepropustí komunikaci&lt;br&gt;&lt;br&gt;&lt;br&gt;switchport port-security&lt;br&gt;switchport port-security maximum &amp;lt;num&amp;gt;&lt;br&gt;switchport port-security violation &amp;lt;violation-mode&amp;gt;&lt;br&gt;switchport port-security mac-address &amp;lt;address&amp;gt;&lt;br&gt;&lt;/font&gt;&lt;/font&gt;" style="rounded=0;whiteSpace=wrap;html=1;fillStyle=solid;fillColor=#FFFFFF;align=left;" parent="Eb_Z2xhD77kWlVFTaPqJ-16" vertex="1">
          <mxGeometry y="30" width="430" height="210" as="geometry" />
        </mxCell>
        <mxCell id="lwGD9mk699JmOTdeLKET-1" style="rounded=0;orthogonalLoop=1;jettySize=auto;html=1;" parent="1" source="Eb_Z2xhD77kWlVFTaPqJ-4" target="Eb_Z2xhD77kWlVFTaPqJ-7" edge="1">
          <mxGeometry relative="1" as="geometry" />
        </mxCell>
        <mxCell id="lwGD9mk699JmOTdeLKET-4" value="DHCP" style="swimlane;fillColor=#dae8fc;fillStyle=solid;startSize=30;strokeColor=#6c8ebf;" parent="1" vertex="1">
          <mxGeometry x="40" y="570" width="440" height="460" as="geometry">
            <mxRectangle x="220" y="210" width="100" height="30" as="alternateBounds" />
          </mxGeometry>
        </mxCell>
        <mxCell id="lwGD9mk699JmOTdeLKET-5" value="&lt;font face=&quot;Courier New&quot;&gt;&lt;font face=&quot;Courier New&quot;&gt;ip dhcp excluded-address &amp;lt;first-ip&amp;gt; &amp;lt;&lt;/font&gt;&lt;/font&gt;&lt;font face=&quot;Courier New&quot;&gt;&lt;font face=&quot;Courier New&quot;&gt;last-ip &amp;gt;(optional)&lt;br&gt;ip dhcp pool &amp;lt;pool-name&amp;gt;&lt;br&gt;&amp;nbsp; network &amp;lt;net-address&amp;gt; &amp;lt;subnet-mask&amp;gt;&lt;br&gt;&amp;nbsp; default-router &amp;lt;address&amp;gt;&lt;br&gt;&amp;nbsp; dns-server &amp;lt;address&amp;gt;&lt;br&gt;&lt;br&gt;show running-config | section dhcp&lt;/font&gt;&lt;/font&gt;&lt;div&gt;&lt;font face=&quot;Courier New&quot;&gt;&lt;font face=&quot;Courier New&quot;&gt;&lt;br&gt;&lt;/font&gt;&lt;/font&gt;&lt;/div&gt;&lt;div&gt;&lt;font face=&quot;Courier New&quot;&gt;&lt;font face=&quot;Courier New&quot;&gt;V6&lt;/font&gt;&lt;/font&gt;&lt;/div&gt;&lt;div&gt;&lt;font face=&quot;Courier New&quot;&gt;&lt;font face=&quot;Courier New&quot;&gt;#! Statelss - DHCP netrackuje vydané IP adresy&lt;/font&gt;&lt;/font&gt;&lt;/div&gt;&lt;div&gt;&lt;font face=&quot;Courier New&quot;&gt;#! Stateful - DHCP trackuje vydané IP adresy&lt;/font&gt;&lt;/div&gt;&lt;div&gt;&lt;font face=&quot;Courier New&quot;&gt;#! SLAAC - klienti v DHCP6 si dokážou sami vytvořit IPv6 adresu bez použití DHCP (default)&lt;/font&gt;&lt;/div&gt;&lt;div&gt;&lt;font face=&quot;Courier New&quot;&gt;# Commandy na DHCPv6 se liší jenom použitím ipv6 místo ip&lt;/font&gt;&lt;/div&gt;&lt;div&gt;&lt;font face=&quot;Courier New&quot;&gt;&lt;span style=&quot;white-space: pre;&quot;&gt;&#x9;&lt;/span&gt;V Packet Traceru nefunguje DHCPv6 relay&lt;/font&gt;&lt;/div&gt;&lt;div&gt;&lt;font face=&quot;Courier New&quot;&gt;&lt;br&gt;&lt;/font&gt;&lt;/div&gt;&lt;div&gt;&lt;font face=&quot;Courier New&quot;&gt;address prefix &amp;lt;network&amp;gt;/&amp;lt;zkrácená maska&amp;gt; - místo network commandu pro v4&lt;/font&gt;&lt;/div&gt;&lt;div&gt;&lt;font face=&quot;Courier New&quot;&gt;Stateles:&lt;/font&gt;&lt;/div&gt;&lt;div&gt;&lt;font face=&quot;Courier New&quot;&gt;&lt;span style=&quot;white-space: pre;&quot;&gt;&#x9;&lt;/span&gt;interface ...&lt;/font&gt;&lt;/div&gt;&lt;div&gt;&lt;font face=&quot;Courier New&quot;&gt;&lt;span style=&quot;white-space: pre;&quot;&gt;&#x9;&lt;/span&gt;ipv6 nd other-config-flag&lt;/font&gt;&lt;/div&gt;&lt;div&gt;&lt;font face=&quot;Courier New&quot;&gt;&lt;span style=&quot;white-space: pre;&quot;&gt;&#x9;&lt;/span&gt;ipv6 dhcp server &amp;lt;pool-name&amp;gt;&lt;/font&gt;&lt;/div&gt;&lt;div&gt;&lt;font face=&quot;Courier New&quot;&gt;Stateful:&lt;/font&gt;&lt;/div&gt;&lt;div&gt;&lt;font face=&quot;Courier New&quot;&gt;&lt;span style=&quot;white-space: pre;&quot;&gt;&#x9;&lt;/span&gt;interface ...&lt;br&gt;&lt;/font&gt;&lt;/div&gt;&lt;div&gt;&lt;font face=&quot;Courier New&quot;&gt;&lt;span style=&quot;white-space: pre;&quot;&gt;&#x9;&lt;/span&gt;ipv6 nd managed-config-flag&lt;br&gt;&lt;/font&gt;&lt;/div&gt;&lt;div&gt;&lt;font face=&quot;Courier New&quot;&gt;&lt;span style=&quot;white-space: pre;&quot;&gt;&#x9;&lt;/span&gt;ipv6 dhcp server &amp;lt;pool-name&amp;gt;&lt;br&gt;&lt;/font&gt;&lt;/div&gt;&lt;div&gt;&lt;font face=&quot;Courier New&quot;&gt;&lt;br&gt;&lt;/font&gt;&lt;/div&gt;" style="rounded=0;whiteSpace=wrap;html=1;fillStyle=solid;fillColor=#FFFFFF;align=left;" parent="lwGD9mk699JmOTdeLKET-4" vertex="1">
          <mxGeometry y="30" width="440" height="430" as="geometry" />
        </mxCell>
        <mxCell id="lwGD9mk699JmOTdeLKET-6" value="DHCP Relay" style="swimlane;fillColor=#dae8fc;fillStyle=solid;startSize=30;strokeColor=#6c8ebf;" parent="1" vertex="1">
          <mxGeometry x="40" y="1050" width="440" height="110" as="geometry">
            <mxRectangle x="220" y="210" width="100" height="30" as="alternateBounds" />
          </mxGeometry>
        </mxCell>
        <mxCell id="lwGD9mk699JmOTdeLKET-7" value="&lt;font face=&quot;Courier New&quot;&gt;&lt;font face=&quot;Courier New&quot;&gt;#! Router se odkazuje na jiný router který je dhcp server&lt;br&gt;&lt;br&gt;interface ...&lt;br&gt;&amp;nbsp; ip helper-address &amp;lt;address&amp;gt;&lt;br&gt;&lt;/font&gt;&lt;/font&gt;" style="rounded=0;whiteSpace=wrap;html=1;fillStyle=solid;fillColor=#FFFFFF;align=left;" parent="lwGD9mk699JmOTdeLKET-6" vertex="1">
          <mxGeometry y="30" width="440" height="80" as="geometry" />
        </mxCell>
        <mxCell id="lwGD9mk699JmOTdeLKET-8" value="DHCP Klient" style="swimlane;fillColor=#dae8fc;fillStyle=solid;startSize=30;strokeColor=#6c8ebf;" parent="1" vertex="1">
          <mxGeometry x="520" y="1050" width="440" height="110" as="geometry">
            <mxRectangle x="220" y="210" width="100" height="30" as="alternateBounds" />
          </mxGeometry>
        </mxCell>
        <mxCell id="lwGD9mk699JmOTdeLKET-9" value="&lt;font face=&quot;Courier New&quot;&gt;&lt;font face=&quot;Courier New&quot;&gt;!# Nastavím router, aby dostával ip adresu od dhcp&lt;br&gt;&lt;br&gt;interface ...&lt;br&gt;&amp;nbsp; ip address dhcp&lt;br&gt;&lt;/font&gt;&lt;/font&gt;" style="rounded=0;whiteSpace=wrap;html=1;fillStyle=solid;fillColor=#FFFFFF;align=left;" parent="lwGD9mk699JmOTdeLKET-8" vertex="1">
          <mxGeometry y="30" width="440" height="80" as="geometry" />
        </mxCell>
        <mxCell id="lwGD9mk699JmOTdeLKET-10" style="edgeStyle=none;rounded=0;orthogonalLoop=1;jettySize=auto;html=1;entryX=0.5;entryY=0;entryDx=0;entryDy=0;" parent="1" source="lwGD9mk699JmOTdeLKET-5" target="lwGD9mk699JmOTdeLKET-6" edge="1">
          <mxGeometry relative="1" as="geometry" />
        </mxCell>
        <mxCell id="lwGD9mk699JmOTdeLKET-13" style="edgeStyle=none;rounded=0;orthogonalLoop=1;jettySize=auto;html=1;" parent="1" source="Eb_Z2xhD77kWlVFTaPqJ-14" target="Eb_Z2xhD77kWlVFTaPqJ-7" edge="1">
          <mxGeometry relative="1" as="geometry" />
        </mxCell>
        <mxCell id="lwGD9mk699JmOTdeLKET-17" style="edgeStyle=none;rounded=0;orthogonalLoop=1;jettySize=auto;html=1;" parent="1" source="Eb_Z2xhD77kWlVFTaPqJ-7" target="Eb_Z2xhD77kWlVFTaPqJ-16" edge="1">
          <mxGeometry relative="1" as="geometry" />
        </mxCell>
        <mxCell id="kf03Y7dqr1xHIIaaIydt-1" value="Zabezpečení zařízení" style="swimlane;whiteSpace=wrap;html=1;fillColor=#d5e8d4;strokeColor=#82b366;" parent="1" vertex="1">
          <mxGeometry x="490" y="740" width="490" height="180" as="geometry" />
        </mxCell>
        <mxCell id="kf03Y7dqr1xHIIaaIydt-5" value="&lt;div&gt;&lt;font face=&quot;Courier New&quot;&gt;!# linky se chovají jako rozhraní&lt;/font&gt;&lt;/div&gt;&lt;div&gt;&lt;font face=&quot;sasUecvsUHOIPkqvlJbx&quot;&gt;&lt;br&gt;&lt;/font&gt;&lt;/div&gt;&lt;div&gt;&lt;font face=&quot;Courier New&quot;&gt;enable secret &amp;lt;heslo&amp;gt; - nastaví heslo pro příkaz enable&lt;/font&gt;&lt;/div&gt;&lt;font face=&quot;Courier New&quot;&gt;password &amp;lt;heslo&amp;gt; - nastaví heslo&lt;/font&gt;&lt;div&gt;&lt;font face=&quot;Courier New&quot;&gt;login - zařízení si začne říkat o heslo&lt;/font&gt;&lt;/div&gt;&lt;div&gt;&lt;font face=&quot;Courier New&quot;&gt;login local - zařízení si začne říkat o heslo a username&lt;/font&gt;&lt;/div&gt;&lt;div&gt;&lt;font face=&quot;Courier New&quot;&gt;service password-encryption - spustí šifrování hesel&lt;/font&gt;&lt;/div&gt;&lt;div&gt;&lt;font face=&quot;TMWnewfD7SI-Iq0p1zYU&quot;&gt;&lt;br&gt;&lt;/font&gt;&lt;/div&gt;&lt;div&gt;&lt;font face=&quot;Courier New&quot;&gt;line console 0 - defaultní rozhraní, které používáme&lt;/font&gt;&lt;/div&gt;&lt;div&gt;&lt;font face=&quot;Courier New&quot;&gt;line vty 0 15 - virtuání rozhraní pro ssh apod.&lt;/font&gt;&lt;/div&gt;" style="text;html=1;align=left;verticalAlign=middle;whiteSpace=wrap;rounded=0;fillColor=default;strokeColor=default;" parent="kf03Y7dqr1xHIIaaIydt-1" vertex="1">
          <mxGeometry y="20" width="490" height="160" as="geometry" />
        </mxCell>
        <mxCell id="kf03Y7dqr1xHIIaaIydt-6" value="Ostatní" style="swimlane;whiteSpace=wrap;html=1;fillColor=#d5e8d4;strokeColor=#82b366;" parent="1" vertex="1">
          <mxGeometry x="40" y="410" width="410" height="140" as="geometry" />
        </mxCell>
        <mxCell id="kf03Y7dqr1xHIIaaIydt-7" value="&lt;div&gt;&lt;font face=&quot;Courier New&quot;&gt;banner motd #zpráva# - nastaví message of the day - zprávu, která se zobrazí při vstupu na zařízení&lt;/font&gt;&lt;/div&gt;&lt;div&gt;&lt;font face=&quot;Courier New&quot;&gt;&lt;br&gt;&lt;/font&gt;&lt;/div&gt;&lt;div&gt;&lt;font face=&quot;Courier New&quot;&gt;no &amp;lt;příkaz&amp;gt; - undo příkazu&lt;/font&gt;&lt;/div&gt;&lt;div&gt;&lt;font face=&quot;Courier New&quot;&gt;&lt;br&gt;&lt;/font&gt;&lt;/div&gt;&lt;div&gt;&lt;font face=&quot;Courier New&quot;&gt;copy running-config startup-config - uloží aktuální konfiguraci, aby zůstala i po restartu zařízení&lt;/font&gt;&lt;/div&gt;" style="text;html=1;align=left;verticalAlign=middle;whiteSpace=wrap;rounded=0;fillColor=default;strokeColor=default;" parent="kf03Y7dqr1xHIIaaIydt-6" vertex="1">
          <mxGeometry y="20" width="410" height="120" as="geometry" />
        </mxCell>
        <mxCell id="6_cV1c1mmNn6FJcVCxE8-1" value="SSH" style="swimlane;whiteSpace=wrap;html=1;fillColor=#d5e8d4;strokeColor=#82b366;" parent="1" vertex="1">
          <mxGeometry x="490" y="390" width="490" height="320" as="geometry" />
        </mxCell>
        <mxCell id="6_cV1c1mmNn6FJcVCxE8-2" value="&lt;font face=&quot;Courier New&quot;&gt;#! Vzdálený přístup na zařízení (Switch, Router, apod.&lt;/font&gt;&lt;div&gt;&lt;font face=&quot;Courier New&quot;&gt;&lt;br&gt;&lt;/font&gt;&lt;div&gt;&lt;font face=&quot;Courier New&quot;&gt;#! Narozdíl od Telnet používá šifrování&lt;/font&gt;&lt;/div&gt;&lt;div&gt;&lt;font face=&quot;Courier New&quot;&gt;&lt;br&gt;&lt;/font&gt;&lt;/div&gt;&lt;div&gt;&lt;font face=&quot;Courier New&quot;&gt;#! Nastavujeme na zařízení, připojujeme se přes počítač v SSH/Telnet rozhraní pomocí IP adresy, loginu a hesla&lt;/font&gt;&lt;/div&gt;&lt;div&gt;&lt;font face=&quot;Courier New&quot;&gt;&lt;br&gt;&lt;/font&gt;&lt;/div&gt;&lt;div&gt;&lt;font face=&quot;Courier New&quot;&gt;#! Je potřeba mít nastavené heslo na enable a linkách&lt;/font&gt;&lt;/div&gt;&lt;div&gt;&lt;font face=&quot;Courier New&quot;&gt;&lt;br&gt;&lt;/font&gt;&lt;/div&gt;&lt;div&gt;&lt;font face=&quot;Courier New&quot;&gt;#! Na Switchi musíme nastavit IP adresu na int vlan &amp;lt;vlanID&amp;gt;&lt;/font&gt;&lt;/div&gt;&lt;div&gt;&lt;font face=&quot;Courier New&quot;&gt;&lt;br&gt;&lt;/font&gt;&lt;/div&gt;&lt;div&gt;&lt;font face=&quot;Courier New&quot;&gt;ip ssh version 2&lt;/font&gt;&lt;/div&gt;&lt;div&gt;&lt;font face=&quot;Courier New&quot;&gt;ip domain-name &amp;lt;domain&amp;gt; (např. delta.ptk)&lt;/font&gt;&lt;/div&gt;&lt;div&gt;&lt;font face=&quot;Courier New&quot;&gt;crypto key generate rsa -&amp;gt; 1024&lt;/font&gt;&lt;/div&gt;&lt;div&gt;&lt;font face=&quot;Courier New&quot;&gt;username &amp;lt;usr&amp;gt; password &amp;lt;pass&amp;gt; - login a heslo co zadáme na počítači&lt;/font&gt;&lt;/div&gt;&lt;div&gt;&lt;font face=&quot;Courier New&quot;&gt;line vty 0 15&lt;/font&gt;&lt;/div&gt;&lt;div&gt;&lt;font face=&quot;Courier New&quot;&gt;&lt;span style=&quot;white-space: pre;&quot;&gt;&#x9;&lt;/span&gt;login local&lt;br&gt;&lt;/font&gt;&lt;/div&gt;&lt;div&gt;&lt;font face=&quot;Courier New&quot;&gt;&lt;span style=&quot;white-space: pre;&quot;&gt;&#x9;&lt;/span&gt;transport input ssh&lt;br&gt;&lt;/font&gt;&lt;/div&gt;&lt;/div&gt;" style="text;html=1;align=left;verticalAlign=middle;whiteSpace=wrap;rounded=0;fillColor=default;strokeColor=default;" parent="6_cV1c1mmNn6FJcVCxE8-1" vertex="1">
          <mxGeometry y="20" width="490" height="300" as="geometry" />
        </mxCell>
        <mxCell id="6_cV1c1mmNn6FJcVCxE8-4" style="edgeStyle=orthogonalEdgeStyle;rounded=0;orthogonalLoop=1;jettySize=auto;html=1;exitX=0.5;exitY=1;exitDx=0;exitDy=0;entryX=0.5;entryY=0;entryDx=0;entryDy=0;" parent="1" source="6_cV1c1mmNn6FJcVCxE8-2" target="kf03Y7dqr1xHIIaaIydt-1" edge="1">
          <mxGeometry relative="1" as="geometry" />
        </mxCell>
        <mxCell id="6_cV1c1mmNn6FJcVCxE8-5" value="Koukni sem pokud maturuješ s kocovinou" style="swimlane;whiteSpace=wrap;html=1;fillColor=#f8cecc;strokeColor=#b85450;" parent="1" vertex="1">
          <mxGeometry x="40" y="190" width="430" height="150" as="geometry">
            <mxRectangle x="40" y="190" width="260" height="30" as="alternateBounds" />
          </mxGeometry>
        </mxCell>
        <mxCell id="6_cV1c1mmNn6FJcVCxE8-6" value="&lt;div&gt;interface &amp;lt;interface&amp;gt; - vstup na rozhraní&lt;br&gt;&lt;/div&gt;&lt;div&gt;sh - vypne rozhraní&lt;/div&gt;&lt;div&gt;no sh - zapne rozhraní&lt;/div&gt;ip add &amp;lt;adresa&amp;gt; &amp;lt;maska&amp;gt; - přidá ipv4 na rozhraní&lt;div&gt;ipv6 add &amp;lt;adresa&amp;gt;/&amp;lt;zkrácená maska&amp;gt; (většinou /64) - přidá ipv6 na rozhraní&lt;/div&gt;&lt;div&gt;ipv6 add &amp;lt;adresa&amp;gt; link-local - přidá lokální ipv6 adresu (začínají fe80::), ty nejde pingovat z venku&lt;/div&gt;" style="text;html=1;align=left;verticalAlign=middle;whiteSpace=wrap;rounded=0;fillColor=default;strokeColor=default;" parent="6_cV1c1mmNn6FJcVCxE8-5" vertex="1">
          <mxGeometry y="20" width="430" height="130" as="geometry" />
        </mxCell>
        <mxCell id="6_cV1c1mmNn6FJcVCxE8-8" value="IPv6" style="swimlane;whiteSpace=wrap;html=1;fillColor=#dae8fc;strokeColor=#6c8ebf;" parent="1" vertex="1">
          <mxGeometry x="990" y="190" width="380" height="50" as="geometry" />
        </mxCell>
        <mxCell id="6_cV1c1mmNn6FJcVCxE8-9" value="&lt;font face=&quot;Courier New&quot;&gt;ipv6 enable unicast-routing - zapne IPv6 routování&lt;/font&gt;" style="text;html=1;align=center;verticalAlign=middle;resizable=0;points=[];autosize=1;strokeColor=default;fillColor=default;" parent="6_cV1c1mmNn6FJcVCxE8-8" vertex="1">
          <mxGeometry y="20" width="380" height="30" as="geometry" />
        </mxCell>
        <mxCell id="6_cV1c1mmNn6FJcVCxE8-10" value="Statické routování" style="swimlane;whiteSpace=wrap;html=1;fillColor=#dae8fc;strokeColor=#6c8ebf;" parent="1" vertex="1">
          <mxGeometry x="990" y="265" width="490" height="115" as="geometry" />
        </mxCell>
        <mxCell id="6_cV1c1mmNn6FJcVCxE8-11" value="&lt;div style=&quot;text-align: left;&quot;&gt;&lt;font face=&quot;Courier New&quot;&gt;#! Hop adresa - network přes který pošleme packet&lt;/font&gt;&lt;/div&gt;&lt;div style=&quot;text-align: left;&quot;&gt;&lt;font face=&quot;Courier New&quot;&gt;&lt;br&gt;&lt;/font&gt;&lt;/div&gt;&lt;font face=&quot;Courier New&quot;&gt;&lt;div style=&quot;text-align: left;&quot;&gt;&lt;span style=&quot;background-color: initial;&quot;&gt;ip route&amp;lt;network destinace&amp;gt; &amp;lt;maska destinace&amp;gt; &amp;lt;port/hop adresa&amp;gt;&lt;/span&gt;&lt;/div&gt;&lt;/font&gt;&lt;div style=&quot;text-align: left;&quot;&gt;&lt;font face=&quot;Courier New&quot;&gt;ipv6 route &amp;lt;destinace&amp;gt;/&amp;lt;zkrácená maska&amp;gt; &amp;lt;port/hop adresa&amp;gt;&lt;/font&gt;&lt;/div&gt;&lt;div style=&quot;text-align: left;&quot;&gt;&lt;font face=&quot;Courier New&quot;&gt;ip route 0.0.0.0 0.0.0.0 &amp;lt;port/hop adresa&amp;gt; - defaultní IPv4 route&lt;/font&gt;&lt;/div&gt;&lt;div style=&quot;text-align: left;&quot;&gt;&lt;font face=&quot;Courier New&quot;&gt;ipv6 route ::/0 &amp;lt;port/hop adresa&amp;gt; - defaultní IPv6 adresa&lt;/font&gt;&lt;/div&gt;" style="text;html=1;align=center;verticalAlign=middle;resizable=0;points=[];autosize=1;strokeColor=default;fillColor=default;" parent="6_cV1c1mmNn6FJcVCxE8-10" vertex="1">
          <mxGeometry y="20" width="490" height="100" as="geometry" />
        </mxCell>
        <mxCell id="6_cV1c1mmNn6FJcVCxE8-12" value="" style="rounded=0;whiteSpace=wrap;html=1;fillColor=#fff2cc;strokeColor=#d6b656;" parent="1" vertex="1">
          <mxGeometry x="40" y="-270" width="20" height="20" as="geometry" />
        </mxCell>
        <mxCell id="6_cV1c1mmNn6FJcVCxE8-13" value="Switch" style="text;html=1;align=left;verticalAlign=middle;whiteSpace=wrap;rounded=0;fillColor=default;" parent="1" vertex="1">
          <mxGeometry x="70" y="-270" width="40" height="20" as="geometry" />
        </mxCell>
        <mxCell id="6_cV1c1mmNn6FJcVCxE8-14" value="" style="rounded=0;whiteSpace=wrap;html=1;fillColor=#dae8fc;strokeColor=#6c8ebf;" parent="1" vertex="1">
          <mxGeometry x="120" y="-270" width="20" height="20" as="geometry" />
        </mxCell>
        <mxCell id="6_cV1c1mmNn6FJcVCxE8-15" value="Router" style="text;html=1;align=left;verticalAlign=middle;whiteSpace=wrap;rounded=0;fillColor=default;" parent="1" vertex="1">
          <mxGeometry x="150" y="-270" width="40" height="20" as="geometry" />
        </mxCell>
        <mxCell id="6_cV1c1mmNn6FJcVCxE8-16" value="" style="rounded=0;whiteSpace=wrap;html=1;fillColor=#d5e8d4;strokeColor=#82b366;" parent="1" vertex="1">
          <mxGeometry x="40" y="-240" width="20" height="20" as="geometry" />
        </mxCell>
        <mxCell id="6_cV1c1mmNn6FJcVCxE8-17" value="General" style="text;html=1;align=left;verticalAlign=middle;whiteSpace=wrap;rounded=0;fillColor=default;" parent="1" vertex="1">
          <mxGeometry x="70" y="-240" width="40" height="20" as="geometry" />
        </mxCell>
        <mxCell id="6_cV1c1mmNn6FJcVCxE8-18" value="" style="rounded=0;whiteSpace=wrap;html=1;fillColor=#f8cecc;strokeColor=#b85450;" parent="1" vertex="1">
          <mxGeometry x="120" y="-240" width="20" height="20" as="geometry" />
        </mxCell>
        <mxCell id="6_cV1c1mmNn6FJcVCxE8-19" value="pomoc" style="text;html=1;align=left;verticalAlign=middle;whiteSpace=wrap;rounded=0;fillColor=default;" parent="1" vertex="1">
          <mxGeometry x="150" y="-240" width="40" height="20" as="geometry" />
        </mxCell>
        <mxCell id="yHLlbmvYcz_uQjiX41VN-1" style="edgeStyle=orthogonalEdgeStyle;rounded=0;orthogonalLoop=1;jettySize=auto;html=1;exitX=1;exitY=0.5;exitDx=0;exitDy=0;entryX=0;entryY=0.5;entryDx=0;entryDy=0;" edge="1" parent="1" source="lwGD9mk699JmOTdeLKET-7" target="lwGD9mk699JmOTdeLKET-9">
          <mxGeometry relative="1" as="geometry" />
        </mxCell>
        <mxCell id="yHLlbmvYcz_uQjiX41VN-2" value="HSRP" style="swimlane;whiteSpace=wrap;html=1;fillColor=#dae8fc;strokeColor=#6c8ebf;startSize=23;" vertex="1" parent="1">
          <mxGeometry x="990" y="570" width="710" height="200" as="geometry" />
        </mxCell>
        <mxCell id="yHLlbmvYcz_uQjiX41VN-3" value="&lt;font face=&quot;Courier New&quot;&gt;#! Protokol, který zaručí, že v případě selhání jednoho routeru převezme jeho práci druhý&lt;/font&gt;&lt;div&gt;&lt;font face=&quot;Courier New&quot;&gt;#! Potřebujeme alespoň 2 routery&lt;/font&gt;&lt;/div&gt;&lt;div&gt;&lt;font face=&quot;Courier New&quot;&gt;#! Místo IP adresy Routeru na klientech nastavíme adresu virtuálního routeru&lt;/font&gt;&lt;/div&gt;&lt;div&gt;&lt;font face=&quot;Courier New&quot;&gt;#! ID si vymysli&lt;/font&gt;&lt;/div&gt;&lt;div&gt;&lt;font face=&quot;Courier New&quot;&gt;#! Virtuální router taky, ale většinou se dává poslední adresa v networku&lt;/font&gt;&lt;/div&gt;&lt;div&gt;&lt;font face=&quot;Courier New&quot;&gt;intetrface ...&lt;/font&gt;&lt;/div&gt;&lt;div&gt;&lt;font face=&quot;Courier New&quot;&gt;&lt;span style=&quot;white-space: pre;&quot;&gt;&#x9;&lt;/span&gt;standby version 2&lt;br&gt;&lt;/font&gt;&lt;/div&gt;&lt;div&gt;&lt;font face=&quot;Courier New&quot;&gt;&lt;span style=&quot;white-space: pre;&quot;&gt;&#x9;&lt;/span&gt;standby &amp;lt;ID&amp;gt; ip &amp;lt;virtual-router-ip&amp;gt;&lt;br&gt;&lt;/font&gt;&lt;/div&gt;&lt;div&gt;&lt;font face=&quot;Courier New&quot;&gt;&lt;span style=&quot;white-space: pre;&quot;&gt;&#x9;&lt;/span&gt;standby &amp;lt;ID&amp;gt; priority &amp;lt;num&amp;gt; (optional, 0-255, největší priorita = hlavní fyzický router)&lt;br&gt;&lt;/font&gt;&lt;/div&gt;&lt;div&gt;&lt;font face=&quot;Courier New&quot;&gt;&lt;span style=&quot;white-space: pre;&quot;&gt;&#x9;&lt;/span&gt;standby &amp;lt;ID&amp;gt; preempt - převezme zpět svou roli jakmile je opět online&lt;br&gt;&lt;/font&gt;&lt;/div&gt;" style="text;html=1;align=left;verticalAlign=middle;resizable=1;points=[];autosize=1;strokeColor=default;fillColor=default;movable=1;rotatable=1;deletable=1;editable=1;locked=0;connectable=1;" vertex="1" parent="yHLlbmvYcz_uQjiX41VN-2">
          <mxGeometry y="20" width="710" height="180" as="geometry" />
        </mxCell>
      </root>
    </mxGraphModel>
  </diagram>
</mxfile>
